<svg width="341" height="40" viewBox="0 0 341 40" fill="none" xmlns="http://www.w3.org/2000/svg">
<path d="M140 0C128.955 0 120 8.95427 120 20C120 31.0457 128.955 40 140 40C151.045 40 160 31.0457 160 20C160 8.95427 151.045 0 140 0ZM150.145 22.1631C151.077 23.0736 152.063 23.9304 152.9 24.935C153.271 25.3794 153.62 25.839 153.886 26.3558C154.266 27.0928 153.923 27.901 153.264 27.9448L149.166 27.9439C148.108 28.0315 147.266 27.6047 146.556 26.8812C145.989 26.3047 145.463 25.6888 144.917 25.0926C144.694 24.8479 144.46 24.6175 144.18 24.4362C143.621 24.0728 143.136 24.1841 142.816 24.7677C142.49 25.3614 142.415 26.0194 142.384 26.6803C142.339 27.6464 142.048 27.8989 141.079 27.9443C139.007 28.0413 137.042 27.7271 135.215 26.6828C133.604 25.7616 132.356 24.4616 131.27 22.9897C129.153 20.1203 127.532 16.971 126.076 13.7314C125.748 13.0017 125.988 12.6114 126.793 12.5962C128.13 12.5704 129.467 12.5737 130.805 12.595C131.349 12.6036 131.709 12.915 131.918 13.4285C132.641 15.2065 133.527 16.8982 134.637 18.4671C134.933 18.8849 135.235 19.3015 135.665 19.5965C136.14 19.9223 136.501 19.8146 136.725 19.2847C136.868 18.9479 136.93 18.5878 136.961 18.2269C137.068 16.9907 137.08 15.7549 136.896 14.5236C136.782 13.753 136.348 13.2554 135.58 13.1098C135.189 13.0357 135.246 12.8908 135.437 12.6674C135.767 12.2811 136.076 12.0421 136.694 12.0421L141.324 12.0413C142.053 12.1846 142.217 12.5119 142.316 13.2469L142.32 18.3914C142.312 18.6758 142.463 19.5188 142.974 19.705C143.383 19.84 143.653 19.5118 143.898 19.2528C145.008 18.0747 145.799 16.6842 146.507 15.245C146.82 14.6103 147.09 13.9536 147.351 13.2956C147.546 12.809 147.849 12.5696 148.398 12.5778L152.856 12.5831C152.987 12.5831 153.121 12.5843 153.251 12.6069C154.002 12.7353 154.208 13.0586 153.976 13.7915C153.61 14.943 152.899 15.9022 152.204 16.8638C151.459 17.8934 150.665 18.887 149.928 19.921C149.25 20.8663 149.304 21.3422 150.145 22.1631Z" fill="#DDE4E8"/>
<path d="M201 0C189.954 0 181 8.95427 181 20C181 31.0457 189.954 40 201 40C212.046 40 221 31.0457 221 20C221 8.95427 212.046 0 201 0ZM208.63 10.1852L205.864 10.1864C203.695 10.1864 203.275 11.2172 203.275 12.7296V16.0647H208.448L208.446 21.2882H203.276V34.693H197.88V21.2882H193.37V16.0647H197.88V12.2124C197.88 7.74179 200.612 5.30701 204.599 5.30701L208.63 5.31315V10.1852H208.63Z" fill="#DDE4E8"/>
<path fill-rule="evenodd" clip-rule="evenodd" d="M281 20C281 31.0457 272.046 40 261 40C249.954 40 241 31.0457 241 20C241 8.9543 249.954 0 261 0C272.046 0 281 8.9543 281 20ZM261 6C257.139 6 254 9.13945 254 12.9999C254 16.8603 257.139 19.9998 261 19.9998C264.86 19.9998 268 16.8603 268 12.9999C268 9.13945 264.86 6 261 6ZM261 16.4998C259.07 16.4998 257.5 14.9301 257.5 12.9999C257.5 11.0697 259.07 9.49995 261 9.49995C262.93 9.49995 264.5 11.0697 264.5 12.9999C264.5 14.9301 262.93 16.4998 261 16.4998ZM267.807 19.8055C268.492 19.1212 269.597 19.1212 270.282 19.8055C270.964 20.4897 270.964 21.5974 270.28 22.2817C268.103 24.4586 265.343 25.6994 262.498 26.0231L267.487 31.0123C268.171 31.6965 268.171 32.8025 267.487 33.4868C267.146 33.828 266.698 33.9995 266.25 33.9995C265.802 33.9995 265.354 33.828 265.013 33.4868L261 29.4741L256.987 33.4868C256.303 34.171 255.197 34.171 254.513 33.4868C253.828 32.8025 253.828 31.6965 254.513 31.0123L259.502 26.0231C256.656 25.6994 253.897 24.4586 251.72 22.2817C251.036 21.5957 251.036 20.4897 251.72 19.8055C252.404 19.1212 253.51 19.1212 254.194 19.8055C257.948 23.5574 264.055 23.5574 267.807 19.8055Z" fill="#DDE4E8"/>
<path fill-rule="evenodd" clip-rule="evenodd" d="M341 20C341 31.0457 332.046 40 321 40C309.954 40 301 31.0457 301 20C301 8.9543 309.954 0 321 0C332.046 0 341 8.9543 341 20ZM325.499 6C324.219 6.0885 322.724 6.90749 321.852 7.97399C321.057 8.94148 320.403 10.3785 320.658 11.775C322.056 11.8185 323.501 10.98 324.338 9.89548C325.121 8.88598 325.713 7.45799 325.499 6ZM325.97 11.6175C327.6 11.6175 329.327 12.5115 330.555 14.052C326.528 16.2735 327.18 22.0604 331.25 23.6099C330.69 24.8579 330.422 25.4144 329.7 26.5199C328.694 28.0619 327.276 29.9834 325.517 29.9969C324.794 30.0045 324.319 29.7856 323.808 29.5496C323.215 29.276 322.572 28.9795 321.434 28.9859C320.302 28.9915 319.649 29.2844 319.048 29.554C318.523 29.7893 318.038 30.0069 317.309 29.9999C315.551 29.9849 314.207 28.2509 313.201 26.7089C310.388 22.3994 310.091 17.34 311.827 14.649C313.061 12.738 315.008 11.6205 316.837 11.6205C317.811 11.6205 318.596 11.9021 319.345 12.1705C320.026 12.4147 320.677 12.648 321.411 12.648C322.091 12.648 322.65 12.435 323.26 12.2027C323.991 11.924 324.796 11.6175 325.97 11.6175Z" fill="#DDE4E8"/>
<path d="M19.9998 39.9592C31.023 39.9592 39.959 31.0232 39.959 20C39.959 8.97679 31.023 0.0407219 19.9998 0.0407219C8.97659 0.0407219 0.0405273 8.97679 0.0405273 20C0.0405273 31.0232 8.97659 39.9592 19.9998 39.9592Z" fill="#DDE4E8"/>
<path d="M27.2223 32.5295H22.8408V10.8592H20.8889C17.3111 10.8592 15.4371 12.6481 15.4371 15.3184C15.4371 18.3481 16.7297 19.7518 19.4037 21.5407L21.6074 23.0258L15.2741 32.5258H10.563L16.263 24.0444C12.9852 21.7036 11.1408 19.4184 11.1408 15.5629C11.1408 10.7444 14.5 7.46659 20.8593 7.46659H27.1926V32.5221H27.2223V32.5295Z" fill="white"/>
<path fill-rule="evenodd" clip-rule="evenodd" d="M80 40C91.0457 40 100 31.0457 100 20C100 8.9543 91.0457 0 80 0C68.9543 0 60 8.9543 60 20C60 31.0457 68.9543 40 80 40ZM84.7135 15.3222L84.1957 14.8043C82.9414 13.5501 81.2737 12.8594 79.5 12.8594C77.077 12.8594 74.9533 14.164 73.7935 16.1075V16.1076C73.2006 17.1011 72.8594 18.2614 72.8594 19.5C72.8594 20.7386 73.2006 21.8989 73.7935 22.8924L73.7935 22.8924C74.9532 24.8359 77.0769 26.1406 79.5 26.1406V26.1407L79.5 26.1407C80.7295 26.1407 81.8947 25.806 82.8969 25.211L82.8969 25.211C83.9689 24.5745 84.8544 23.6399 85.4303 22.4943H79.5V16.635H91.6854L91.7953 17.2355C91.9312 17.9776 92 18.7395 92 19.5C92 22.8389 90.6998 25.9779 88.3388 28.3389C87.9486 28.729 87.5368 29.0896 87.1067 29.4208V29.4208C84.9344 31.0934 82.2871 32 79.5 32L79.4999 31.9999C76.1611 31.9999 73.0221 30.6997 70.6612 28.3388C70.271 27.9486 69.9104 27.5368 69.5793 27.1067H69.5792C67.9066 24.9345 67 22.2871 67 19.5C67 16.713 67.9066 14.0656 69.5792 11.8934L69.5792 11.8933C69.9104 11.4632 70.271 11.0513 70.6612 10.6611C73.0221 8.30024 76.1612 7 79.5 7C82.8389 7 85.9779 8.30024 88.3389 10.6612L88.8567 11.1791L84.7135 15.3222Z" fill="#DDE4E8"/>
</svg>
