<svg width="375" height="1024" viewBox="0 0 375 1024" fill="none" xmlns="http://www.w3.org/2000/svg">
<g opacity="0.2">
<path d="M361.267 797.142C353.783 797.142 347.497 762.836 347.497 720.476C347.497 678.116 353.633 643.773 361.267 643.773C368.9 643.773 375 677.972 375 720.404C375 762.836 368.863 797.142 361.267 797.142Z" fill="#ED1D4A"/>
<path d="M252.489 819.714C257.947 819.719 263.399 820.093 268.803 820.834V969.978C281.116 968.589 292.486 962.93 300.797 954.053C308.576 944.932 312.576 933.352 312.023 921.551C312.127 913.01 309.977 904.584 305.774 897.067C301.777 889.911 295.807 883.962 288.523 879.878V823.615C309.932 830.245 328.563 843.347 341.663 860.983C354.762 878.62 361.635 899.855 361.266 921.551C361.636 935.159 359.065 948.692 353.718 961.289C348.371 973.885 340.364 985.269 330.208 994.715C320.08 1004.32 308.052 1011.86 294.842 1016.89C281.631 1021.91 267.507 1024.32 253.312 1023.97C241.509 1024 229.766 1022.34 218.475 1019.02C207.73 1015.85 197.611 1010.97 188.539 1004.57C179.84 998.481 172.123 991.179 165.639 982.906C159.086 974.371 154.029 964.855 150.671 954.739C147.094 943.979 145.301 932.742 145.357 921.443C145.059 902.789 150.04 884.41 159.764 868.286C168.997 852.947 182.524 840.431 198.792 832.173C215.346 823.794 233.797 819.513 252.489 819.714ZM192.281 921.696C191.92 932.603 195.535 943.286 202.497 951.886C209.793 960.316 219.782 966.171 230.898 968.534V872.98C223.216 875.111 216.062 878.723 209.868 883.597C204.288 888.127 199.826 893.803 196.809 900.209C193.735 906.98 192.192 914.304 192.281 921.696Z" fill="#ED1D4A"/>
<path d="M336.043 463.971C352.856 480.823 361.251 503.237 361.226 531.212C361.201 559.187 352.744 581.625 335.856 598.526C318.942 615.378 296.715 623.804 269.175 623.804H186.852V570.43H262.739C277.407 570.43 288.832 566.951 297.015 559.994C304.921 552.315 309.358 541.929 309.358 531.104C309.358 520.279 304.921 509.893 297.015 502.214C288.807 495.28 277.382 491.814 262.739 491.814H151.005V438.548H269.175C296.965 438.548 319.254 447.022 336.043 463.971Z" fill="#ED1D4A"/>
<path d="M361.227 215.087V279.764L263.488 343.033H361.227V396.407H82.791V343.033H247.585L151.006 280.27V218.481L254.021 288.936L361.227 215.087Z" fill="#ED1D4A"/>
<path d="M361.227 6.10352e-05V64.7495L263.488 127.982H361.227V181.356H82.791V127.982H247.585L151.006 65.219V3.39462L254.021 73.8858L361.227 6.10352e-05Z" fill="#ED1D4A"/>
<path fill-rule="evenodd" clip-rule="evenodd" d="M235.238 789.234L94.3545 714.301C85.2242 720.26 83.6152 729.902 81.0707 739.038L88.8164 742.974L71.9029 774.031L-2 736.799L14.8012 705.706L22.5096 709.57L74.2604 613.836L66.552 609.936L83.3532 578.88L157.294 616.075L140.492 647.204L132.747 643.304C125.824 650.274 119.538 657.749 119.575 667.752L119.388 668.077L263.003 737.738L235.238 789.234Z" fill="#ED1D4A"/>
</g>
</svg>
