<svg width="152" height="56" viewBox="0 0 152 56" fill="none" xmlns="http://www.w3.org/2000/svg">
<path d="M33.6743 53.9601C33.6743 52.8484 38.7667 51.9146 45.0545 51.9146C51.3423 51.9146 56.4401 52.8262 56.4401 53.9601C56.4401 55.094 51.3637 56 45.0652 56C38.7667 56 33.6743 55.0884 33.6743 53.9601Z" fill="#B91E4B"/>
<path d="M30.3236 37.802C30.323 38.6128 30.2675 39.4226 30.1575 40.2254H8.01888C8.22503 42.0543 9.06514 43.7433 10.3828 44.9777C11.7366 46.1333 13.4555 46.7275 15.2072 46.6452C16.475 46.6608 17.7258 46.3413 18.8416 45.717C19.9038 45.1233 20.7869 44.2365 21.3931 43.1546H29.7447C28.7604 46.3347 26.8157 49.1022 24.1978 51.048C21.5799 52.9938 18.4278 54.0147 15.2072 53.9599C13.1873 54.0148 11.1785 53.633 9.30873 52.8387C7.43896 52.0444 5.74917 50.8551 4.34698 49.3466C2.92118 47.8421 1.80197 46.0555 1.05603 44.0932C0.310079 42.1308 -0.0473523 40.0329 0.00502658 37.9243C-0.000713733 36.171 0.246823 34.4267 0.739403 32.7495C1.20953 31.1535 1.93429 29.6505 2.88358 28.3029C3.78799 27.0107 4.87181 25.8644 6.09984 24.9012C7.36683 23.9279 8.77932 23.1768 10.281 22.6779C11.878 22.1466 13.546 21.8802 15.2233 21.8886C17.9923 21.8442 20.7204 22.5841 23.1138 24.0286C25.3907 25.4001 27.2485 27.4094 28.4743 29.8259C29.7181 32.2848 30.3535 35.0255 30.3236 37.802ZM15.1858 28.8587C13.5668 28.8051 11.9809 29.3421 10.7044 30.3761C9.45309 31.46 8.58396 32.9438 8.23329 34.5949H22.417C22.1007 33.4539 21.5646 32.3912 20.841 31.4711C20.1686 30.6422 19.3262 29.9795 18.3752 29.5313C17.3702 29.0747 16.2829 28.8455 15.1858 28.8587Z" fill="#ED1D4A"/>
<path d="M83.1291 50.2133C80.6276 52.7108 77.3005 53.9577 73.148 53.954C68.9954 53.9503 65.6648 52.6941 63.1561 50.1855C60.6546 47.6731 59.4038 44.3715 59.4038 40.2806V28.0524H67.3265V39.3246C67.3265 41.5034 67.8429 43.2006 68.8757 44.416C70.0156 45.5904 71.5572 46.2495 73.164 46.2495C74.7709 46.2495 76.3125 45.5904 77.4524 44.416C78.4816 43.1969 78.9962 41.4997 78.9962 39.3246V22.7276H86.9028V40.2806C86.9028 44.4086 85.6449 47.7195 83.1291 50.2133Z" fill="#ED1D4A"/>
<path d="M120.073 53.9543H110.472L101.081 39.436V53.9543H93.1582V12.595H101.081V37.0737L110.397 22.7278H119.569L109.111 38.0298L120.073 53.9543Z" fill="#ED1D4A"/>
<path d="M152 53.9543H142.389L133.003 39.436V53.9543H125.08V12.595H133.003V37.0737L142.319 22.7278H151.496L141.033 38.0298L152 53.9543Z" fill="#ED1D4A"/>
<path fill-rule="evenodd" clip-rule="evenodd" d="M34.8481 35.2395L45.971 14.3126C45.0866 12.9564 43.6553 12.7174 42.2991 12.3394L41.7149 13.49L37.1049 10.9776L42.6315 0L47.2468 2.49567L46.6733 3.64068L60.8838 11.3278L61.4627 10.1828L66.0727 12.6785L60.5514 23.6616L55.9307 21.166L56.5097 20.0154C55.4751 18.9871 54.3655 18.0533 52.8806 18.0589L52.8324 18.0311L42.4921 39.3638L34.8481 35.2395Z" fill="#ED1D4A"/>
</svg>
